<svg xmlns="http://www.w3.org/2000/svg" xmlns:xlink="http://www.w3.org/1999/xlink" id="Layer_1" x="0px" y="0px" viewBox="0 0 226.1 100.6" style="enable-background:new 0 0 226.1 100.6;" xml:space="preserve"><style type="text/css">	.st0{fill:#004C6D;}	.st1{fill:#2AB677;}</style><g>	<path class="st0" d="M161.6,32.5v35.1h-30V32.5c0-0.9-0.7-1.6-1.6-1.6h-3.5c-0.9,0-1.6,0.7-1.6,1.6v40c0,0.9,0.7,1.6,1.6,1.6h40  c0.9,0,1.6-0.7,1.6-1.6v-40c0-0.9-0.7-1.6-1.6-1.6h-3.4C162.3,30.9,161.6,31.6,161.6,32.5z"></path>	<path class="st0" d="M215.1,67.5h-35V37.4h35c0.9,0,1.6-0.7,1.6-1.6v-3.4c0-0.9-0.7-1.6-1.6-1.6h-40c-0.9,0-1.6,0.7-1.6,1.6v40  c0,0.9,0.7,1.6,1.6,1.6h40c0.9,0,1.6-0.7,1.6-1.6v-3.4C216.7,68.3,216,67.5,215.1,67.5z"></path>	<path class="st0" d="M83.1,30.9v-20c0-0.9-0.7-1.6-1.6-1.6H78c-0.9,0-1.6,0.7-1.6,1.6v20v21.6v20c0,0.9,0.7,1.6,1.6,1.6h40  c0.9,0,1.6-0.7,1.6-1.6v-40c0-0.9-0.7-1.6-1.6-1.6H83.1z M113.1,67.5h-30v-15v-15h30V67.5z"></path>	<g>		<path class="st1" d="M68.9,29.7L50.5,11.3c0,0,0,0,0,0l0,0l0,0c-0.3-0.3-0.7-0.4-1.1-0.4h-40c-0.9,0-1.6,0.7-1.6,1.6v40   c0,0.4,0.2,0.8,0.5,1.1l0,0L26.7,72V32.5c0-1.5,1.2-2.8,2.8-2.8H68.9z"></path>	</g>	<g>		<path class="st1" d="M182.8,94.1v-9.6h-3.1v-1.4h7.8v1.4h-3.1v9.6H182.8z"></path>		<path class="st1" d="M188.7,94.1v-11h6.9v1.3h-5.4v3.3h4.7v1.3h-4.7v3.8h5.5v1.3H188.7z"></path>		<path class="st1" d="M202.5,94.3c-1.1,0-2.1-0.2-3-0.7c-0.8-0.5-1.5-1.1-2-2c-0.5-0.9-0.7-1.9-0.7-3c0-0.8,0.1-1.6,0.4-2.3   c0.3-0.7,0.7-1.3,1.2-1.8c0.5-0.5,1.1-0.9,1.8-1.2c0.7-0.3,1.4-0.4,2.3-0.4c0.8,0,1.5,0.1,2.1,0.3c0.6,0.2,1.1,0.5,1.6,0.9   l-0.8,1.2c-0.4-0.3-0.8-0.6-1.2-0.7c-0.5-0.2-1-0.2-1.6-0.2c-0.6,0-1.2,0.1-1.7,0.3c-0.5,0.2-1,0.5-1.3,0.9   c-0.4,0.4-0.7,0.8-0.9,1.4c-0.2,0.5-0.3,1.1-0.3,1.8c0,0.9,0.2,1.7,0.5,2.3c0.4,0.6,0.9,1.1,1.5,1.5c0.6,0.3,1.4,0.5,2.3,0.5   c0.6,0,1.1-0.1,1.6-0.3c0.5-0.2,1-0.4,1.5-0.8l0.7,1.3c-0.5,0.4-1.1,0.7-1.8,1C204,94.2,203.3,94.3,202.5,94.3z"></path>		<path class="st1" d="M207.8,94.1v-11h1.5v4.5h5.6v-4.5h1.5v11h-1.5v-5.2h-5.6v5.2H207.8z"></path>	</g>	<path class="st0" d="M69.5,30.9h-40c-0.9,0-1.6,0.7-1.6,1.6v40c0,0.9,0.7,1.6,1.6,1.6h40c0.9,0,1.6-0.7,1.6-1.6v-40  C71.1,31.6,70.4,30.9,69.5,30.9z M64.5,67.5h-30V37.6h30V67.5z"></path></g></svg>